# File produced by Open Asset Import Library (http://www.assimp.sf.net)
# (assimp v3.1.13472455)

mtllib ActricLantern.mtl

# vertex positions
v -32.500000 668.560669 -32.500107
v -32.500000 668.560669 32.499893
v -32.500000 685.376831 32.499889
v -32.500000 685.376831 -32.500111
v 40.998386 -32.500000 40.998394
v 32.500000 32.500000 32.499996
v -32.500000 32.500000 32.499996
v -40.998386 -32.500000 40.998394
v -32.500000 32.500000 -32.500008
v -40.998386 -32.500000 -40.998379
v -40.998386 -48.575134 -40.998379
v -40.998386 -48.575134 40.998398
v 40.998386 -32.500000 -40.998379
v 32.500000 32.500000 -32.500008
v 40.998386 -48.575134 -40.998379
v 40.998386 -48.575134 40.998398
v -20.923470 722.147034 20.923349
v -20.923470 722.147034 -20.923588
v 32.500000 668.560669 32.499893
v 32.500000 668.560669 -32.500107
v 32.500000 685.376831 -32.500111
v 32.500000 685.376831 32.499889
v -32.500000 545.168945 32.499912
v 32.500000 545.168945 32.499912
v 32.500000 561.981689 32.499908
v -32.500000 561.981689 32.499908
v 32.500000 545.168945 -32.500092
v -32.500000 545.168945 -32.500092
v -32.500000 561.981689 -32.500092
v 32.500000 561.981689 -32.500092
v -32.500000 575.449829 32.499908
v 32.500000 575.449829 32.499908
v 32.500000 655.092529 32.499893
v -32.500000 655.092529 32.499893
v 32.500000 575.449829 -32.500092
v -32.500000 575.449829 -32.500092
v -32.500000 655.092529 -32.500107
v 32.500000 655.092529 -32.500107
v -20.923470 733.162292 20.923349
v -20.923470 733.162292 -20.923590
v 20.923470 722.147034 20.923349
v 20.923470 722.147034 -20.923588
v 20.923470 733.162292 -20.923590
v -13.943045 754.797546 -13.943169
v 13.943045 754.797546 -13.943169
v 20.923470 733.162292 20.923349
v -13.943045 754.797546 13.942922
v 13.943045 754.797546 13.942922

# UV coordinates
vt 0.186642 0.106869
vt 0.108789 0.106869
vt 0.108789 0.086727
vt 0.186642 0.086727
vt 0.197088 0.947213
vt 0.207267 0.868698
vt 0.285119 0.868698
vt 0.295298 0.947213
vt 0.098611 0.947213
vt 0.108790 0.868698
vt 0.186642 0.868698
vt 0.196821 0.947213
vt 0.196821 0.966466
vt 0.098611 0.966466
vt 0.295565 0.947213
vt 0.305744 0.868698
vt 0.383596 0.868698
vt 0.393775 0.947213
vt 0.000134 0.980613
vt 0.010312 0.902098
vt 0.088165 0.902098
vt 0.098344 0.980613
vt 0.394042 0.000134
vt 0.492252 0.000134
vt 0.492252 0.098344
vt 0.394042 0.098344
vt 0.393775 0.966466
vt 0.295565 0.966466
vt 0.098344 0.999866
vt 0.000134 0.999866
vt 0.295298 0.966466
vt 0.197088 0.966466
vt 0.122655 0.040555
vt 0.172776 0.040555
vt 0.383596 0.106869
vt 0.305744 0.106869
vt 0.305744 0.086727
vt 0.383596 0.086727
vt 0.088165 0.140269
vt 0.010312 0.140269
vt 0.010312 0.120127
vt 0.088165 0.120127
vt 0.285119 0.106869
vt 0.207267 0.106869
vt 0.207267 0.086727
vt 0.285119 0.086727
vt 0.285119 0.254659
vt 0.207267 0.254659
vt 0.207267 0.234521
vt 0.285119 0.234521
vt 0.088165 0.288059
vt 0.010312 0.288059
vt 0.010312 0.267922
vt 0.088165 0.267922
vt 0.383596 0.254659
vt 0.305744 0.254659
vt 0.305744 0.234521
vt 0.383596 0.234521
vt 0.186642 0.254658
vt 0.108790 0.254658
vt 0.108790 0.234521
vt 0.186642 0.234521
vt 0.285119 0.218390
vt 0.207267 0.218390
vt 0.207267 0.123000
vt 0.285119 0.123000
vt 0.088165 0.251790
vt 0.010312 0.251790
vt 0.010312 0.156400
vt 0.088165 0.156400
vt 0.383596 0.218390
vt 0.305744 0.218390
vt 0.305744 0.123000
vt 0.383596 0.123000
vt 0.186642 0.218390
vt 0.108790 0.218390
vt 0.108789 0.123000
vt 0.186642 0.123000
vt 0.122655 0.027362
vt 0.172776 0.027362
vt 0.221132 0.040556
vt 0.271253 0.040555
vt 0.024178 0.073955
vt 0.074299 0.073956
vt 0.319609 0.040555
vt 0.369731 0.040555
vt 0.074299 0.060762
vt 0.024178 0.060762
vt 0.032539 0.033534
vt 0.065939 0.033534
vt 0.221132 0.027362
vt 0.271253 0.027362
vt 0.319609 0.027362
vt 0.369731 0.027362
vt 0.032539 0.000134
vt 0.065939 0.000134
vt 0.327970 0.000134
vt 0.361370 0.000134
vt 0.131016 0.000134
vt 0.164416 0.000134
vt 0.229493 0.000134
vt 0.262893 0.000134

# vertex normals
vn -1.000000 0.000000 0.000000
vn 0.000000 0.129641 0.991561
vn -0.991561 0.129641 -0.000000
vn 0.991561 0.129641 -0.000000
vn 0.000000 0.129641 -0.991561
vn 0.000000 -1.000000 0.000000
vn 1.000000 0.000000 0.000000
vn 0.000000 -0.000000 -1.000000
vn 0.000000 0.000000 1.000000
vn -0.953844 0.300303 -0.000000
vn 0.000000 0.300303 0.953844
vn 0.000000 0.300303 -0.953844
vn 0.953844 0.300303 -0.000000
vn 0.000000 0.307055 -0.951692
vn 0.000000 1.000000 -0.000000
vn 0.951692 0.307055 -0.000000
vn -0.951692 0.307055 -0.000000
vn 0.000000 0.307055 0.951692

# Mesh
g Cube
usemtl Material
f 4/4/1 1/1/1 2/2/1
f 2/2/1 3/3/1 4/4/1
f 8/8/2 5/5/2 6/6/2
f 6/6/2 7/7/2 8/8/2
f 10/12/3 8/9/3 7/10/3
f 7/10/3 9/11/3 10/12/3
f 12/14/1 8/9/1 10/12/1
f 10/12/1 11/13/1 12/14/1
f 5/18/4 13/15/4 14/16/4
f 14/16/4 6/17/4 5/18/4
f 13/22/5 10/19/5 9/20/5
f 9/20/5 14/21/5 13/22/5
f 12/26/6 11/23/6 15/24/6
f 15/24/6 16/25/6 12/26/6
f 15/28/7 13/15/7 5/18/7
f 5/18/7 16/27/7 15/28/7
f 11/30/8 10/19/8 13/22/8
f 13/22/8 15/29/8 11/30/8
f 16/32/9 5/5/9 8/8/9
f 8/8/9 12/31/9 16/32/9
f 18/34/10 4/4/10 3/3/10
f 3/3/10 17/33/10 18/34/10
f 22/38/7 19/35/7 20/36/7
f 20/36/7 21/37/7 22/38/7
f 21/42/8 20/39/8 1/40/8
f 1/40/8 4/41/8 21/42/8
f 3/46/9 2/43/9 19/44/9
f 19/44/9 22/45/9 3/46/9
f 26/50/9 23/47/9 24/48/9
f 24/48/9 25/49/9 26/50/9
f 30/54/8 27/51/8 28/52/8
f 28/52/8 29/53/8 30/54/8
f 25/58/7 24/55/7 27/56/7
f 27/56/7 30/57/7 25/58/7
f 29/62/1 28/59/1 23/60/1
f 23/60/1 26/61/1 29/62/1
f 34/66/9 31/63/9 32/64/9
f 32/64/9 33/65/9 34/66/9
f 38/70/8 35/67/8 36/68/8
f 36/68/8 37/69/8 38/70/8
f 33/74/7 32/71/7 35/72/7
f 35/72/7 38/73/7 33/74/7
f 37/78/1 36/75/1 31/76/1
f 31/76/1 34/77/1 37/78/1
f 40/80/1 18/34/1 17/33/1
f 17/33/1 39/79/1 40/80/1
f 17/82/11 3/46/11 22/45/11
f 22/45/11 41/81/11 17/82/11
f 42/84/12 21/42/12 4/41/12
f 4/41/12 18/83/12 42/84/12
f 41/86/13 22/38/13 21/37/13
f 21/37/13 42/85/13 41/86/13
f 45/90/14 43/87/14 40/88/14
f 40/88/14 44/89/14 45/90/14
f 39/92/9 17/82/9 41/81/9
f 41/81/9 46/91/9 39/92/9
f 43/87/8 42/84/8 18/83/8
f 18/83/8 40/88/8 43/87/8
f 46/94/7 41/86/7 42/85/7
f 42/85/7 43/93/7 46/94/7
f 48/96/15 45/90/15 44/89/15
f 44/89/15 47/95/15 48/96/15
f 48/98/16 46/94/16 43/93/16
f 43/93/16 45/97/16 48/98/16
f 44/100/17 40/80/17 39/79/17
f 39/79/17 47/99/17 44/100/17
f 47/102/18 39/92/18 46/91/18
f 46/91/18 48/101/18 47/102/18
f 28/59/1 9/11/1 7/10/1
f 7/10/1 23/60/1 28/59/1
f 24/55/7 6/17/7 14/16/7
f 14/16/7 27/56/7 24/55/7
f 27/51/8 14/21/8 9/20/8
f 9/20/8 28/52/8 27/51/8
f 23/47/9 7/7/9 6/6/9
f 6/6/9 24/48/9 23/47/9
f 25/49/9 32/64/9 31/63/9
f 31/63/9 26/50/9 25/49/9
f 29/53/8 36/68/8 35/67/8
f 35/67/8 30/54/8 29/53/8
f 30/57/7 35/72/7 32/71/7
f 32/71/7 25/58/7 30/57/7
f 26/61/1 31/76/1 36/75/1
f 36/75/1 29/62/1 26/61/1
f 2/43/9 34/66/9 33/65/9
f 33/65/9 19/44/9 2/43/9
f 20/39/8 38/70/8 37/69/8
f 37/69/8 1/40/8 20/39/8
f 19/35/7 33/74/7 38/73/7
f 38/73/7 20/36/7 19/35/7
f 1/1/1 37/78/1 34/77/1
f 34/77/1 2/2/1 1/1/1
