# File produced by Open Asset Import Library (http://www.assimp.sf.net)
# (assimp v3.1.13472455)

mtllib Untitled.mtl

# vertex positions
v -27.118191 -0.000004 -27.118191
v 27.118191 -0.000004 -27.118191
v 27.118191 0.000004 27.118191
v -27.118191 0.000004 27.118191
v -25.000000 8.021811 24.999996
v 25.000000 8.021811 25.000000
v 25.000000 16.189484 25.000000
v -25.000000 16.189484 24.999996
v -25.000000 8.021804 -25.000002
v 25.000000 8.021804 -25.000000
v 25.000000 16.189476 -25.000000
v 25.000000 41.428101 -23.683018
v 25.000000 25.413734 23.683006
v -25.000000 16.189476 -25.000002
v -25.000000 41.428101 -23.683018
v -25.000000 25.413734 23.683006
v -18.541368 27.709621 17.641453
v -18.541367 39.586750 -17.487783
v 18.541367 27.709621 17.641453
v 15.447216 21.870644 12.401088
v -15.447214 21.870644 12.401089
v 18.541368 39.586750 -17.487783
v 15.447214 31.765739 -16.865841
v 9.699850 29.924931 -11.421243
v 9.699850 23.711452 6.956491
v -15.447216 31.765739 -16.865839
v -9.699849 23.711452 6.956492
v 8.431654 16.583389 3.207787
v -8.431654 16.583389 3.207788
v -9.699849 29.924931 -11.421242
v -8.431653 21.984493 -12.767170
v 8.431654 21.984493 -12.767171
v 0.000000 21.830568 -1.782833
v -4.576047 24.804295 -3.269656
v -2.828129 24.804295 2.109797
v 2.828129 24.804295 2.109797
v 0.000000 24.804293 -6.594422
v 4.576047 24.804295 -3.269655
v -0.000000 29.615910 3.028755
v -4.576047 29.615910 -0.296012
v -2.828129 29.615910 -5.675465
v 2.828129 29.615910 -5.675465
v 4.576047 29.615910 -0.296012
v 0.000000 32.589634 -1.782835

# UV coordinates
vt 0.402759 0.642030
vt 0.000307 0.642030
vt 0.000307 0.239578
vt 0.402759 0.239578
vt 0.387041 0.178013
vt 0.016024 0.178013
vt 0.016024 0.117406
vt 0.387041 0.117406
vt 0.387041 0.703594
vt 0.016024 0.703594
vt 0.742905 0.000307
vt 0.742905 0.402759
vt 0.681340 0.387041
vt 0.681340 0.016024
vt 0.742905 0.403372
vt 0.742905 0.805824
vt 0.681340 0.790106
vt 0.681340 0.419090
vt 0.620733 0.016024
vt 0.620733 0.387041
vt 0.433454 0.377268
vt 0.552286 0.025797
vt 0.387041 0.764201
vt 0.016024 0.764201
vt 0.620733 0.790106
vt 0.620733 0.419090
vt 0.433454 0.428862
vt 0.552286 0.780334
vt 0.491504 0.750294
vt 0.403372 0.489623
vt 0.016024 0.048265
vt 0.387041 0.048265
vt 0.387041 0.951735
vt 0.016024 0.951735
vt 0.844383 0.521353
vt 0.844383 0.796519
vt 0.786165 0.773560
vt 0.786165 0.544313
vt 0.063950 0.000307
vt 0.339116 0.000307
vt 0.339116 0.999693
vt 0.063949 0.999693
vt 0.403372 0.316508
vt 0.491504 0.055837
vt 0.786165 0.268533
vt 0.786165 0.497780
vt 0.743518 0.455133
vt 0.743518 0.311180
vt 0.945861 0.245573
vt 0.945861 0.520740
vt 0.887643 0.497780
vt 0.887643 0.268533
vt 0.844383 0.245573
vt 0.844383 0.520740
vt 0.945861 0.521353
vt 0.945861 0.796519
vt 0.887643 0.773560
vt 0.887643 0.544313
vt 0.937821 0.244960
vt 0.793868 0.244960
vt 0.803279 0.185199
vt 0.928410 0.185199
vt 0.844996 0.730912
vt 0.844996 0.586960
vt 0.743518 0.730912
vt 0.743518 0.586960
vt 0.844996 0.455133
vt 0.844996 0.311180
vt 0.928410 0.060068
vt 0.803279 0.060068
vt 0.793868 0.000307
vt 0.937821 0.000307
vt 0.743518 0.194610
vt 0.743518 0.050657
vt 0.988171 0.050657
vt 0.988171 0.194610
vt 0.890752 0.797132
vt 0.890752 0.839104
vt 0.854404 0.818118
vt 0.624531 0.890994
vt 0.588182 0.870008
vt 0.624531 0.849022
vt 0.661494 0.806437
vt 0.661494 0.848409
vt 0.625145 0.827423
vt 0.698456 0.806437
vt 0.698456 0.848409
vt 0.662107 0.827423
vt 0.816828 0.839718
vt 0.816828 0.881690
vt 0.780480 0.860704
vt 0.779866 0.839718
vt 0.779866 0.881690
vt 0.743518 0.860703
vt 0.513645 0.848409
vt 0.477296 0.827423
vt 0.513645 0.806437
vt 0.743518 0.818119
vt 0.779867 0.797132
vt 0.779867 0.839105
vt 0.403372 0.827423
vt 0.439721 0.806437
vt 0.439721 0.848409
vt 0.550608 0.848409
vt 0.514258 0.827422
vt 0.550608 0.806437
vt 0.816828 0.797132
vt 0.816828 0.839105
vt 0.780480 0.818119
vt 0.551221 0.827423
vt 0.587570 0.806437
vt 0.587570 0.848409
vt 0.817442 0.860703
vt 0.853791 0.839718
vt 0.853791 0.881689
vt 0.588183 0.827422
vt 0.624532 0.806437
vt 0.624532 0.848409
vt 0.476683 0.806437
vt 0.476683 0.848409
vt 0.440334 0.827423
vt 0.735418 0.848409
vt 0.699069 0.827423
vt 0.735418 0.806437
vt 0.890752 0.881689
vt 0.854404 0.860704
vt 0.890752 0.839718
vt 0.514258 0.870008
vt 0.550607 0.849022
vt 0.550607 0.890994
vt 0.587569 0.849022
vt 0.587569 0.890994
vt 0.551221 0.870008
vt 0.817442 0.818118
vt 0.853791 0.797132
vt 0.853791 0.839104

# vertex normals
vn 0.000000 -1.000000 0.000000
vn -0.000000 0.000000 1.000000
vn -0.000000 0.255304 0.966861
vn 0.000000 0.255303 -0.966861
vn 0.966861 0.255304 0.000000
vn -0.966861 0.255304 -0.000000
vn 1.000000 0.000000 -0.000000
vn 0.000000 -0.000000 -1.000000
vn 1.000000 0.000000 0.000000
vn -1.000000 -0.000000 -0.000000
vn -0.037120 0.946668 0.320067
vn -1.000000 -0.000000 -0.000000
vn -0.000000 0.141342 0.989961
vn 0.000000 0.052110 -0.998641
vn -0.000000 0.667928 -0.744226
vn 0.000000 0.934779 0.355231
vn 0.000000 0.958557 0.284902
vn 0.037119 0.946668 0.320067
vn 0.000001 0.947320 0.320287
vn 0.000000 0.079272 0.996853
vn -0.918949 0.373600 0.126314
vn 0.918949 0.373600 0.126314
vn -0.000000 0.465464 -0.885067
vn -0.000000 0.947320 0.320287
vn 0.000000 0.947320 0.320287
vn 0.000000 0.947320 0.320287
vn 0.000000 0.947320 0.320287
vn 0.000000 -0.167119 0.985937
vn -0.987524 0.149172 0.050435
vn 0.987524 0.149172 0.050435
vn 0.577353 0.794651 -0.187597
vn 0.000001 0.794652 -0.607065
vn 0.356829 0.794652 0.491122
vn -0.356829 0.794652 0.491122
vn -0.577353 0.794651 -0.187597
vn 0.000000 0.187597 -0.982246
vn 0.934172 0.187589 -0.303536
vn 0.577359 0.187587 0.794649
vn -0.577359 0.187587 0.794649
vn -0.934171 0.187589 -0.303536
vn 0.577360 -0.187587 -0.794649
vn 0.934172 -0.187589 0.303535
vn 0.000000 -0.187597 0.982246
vn -0.934171 -0.187589 0.303536
vn -0.577359 -0.187587 -0.794649
vn 0.356828 -0.794653 -0.491122
vn 0.577353 -0.794651 0.187597
vn 0.000000 -0.794652 0.607065
vn -0.577353 -0.794651 0.187597
vn -0.356829 -0.794652 -0.491122

# Mesh
g Plane
usemtl DefaultMaterial
f 4/4/1 1/1/1 2/2/1
f 2/2/1 3/3/1 4/4/1
f 8/8/2 5/5/2 6/6/2
f 6/6/2 7/7/2 8/8/2
f 5/5/3 4/4/3 3/3/3
f 3/3/3 6/6/3 5/5/3
f 10/10/4 2/2/4 1/1/4
f 1/1/4 9/9/4 10/10/4
f 6/14/5 3/11/5 2/12/5
f 2/12/5 10/13/5 6/14/5
f 9/18/6 1/15/6 4/16/6
f 4/16/6 5/17/6 9/18/6
f 13/22/7 7/19/7 11/20/7
f 11/20/7 12/21/7 13/22/7
f 11/24/8 10/10/8 9/9/8
f 9/9/8 14/23/8 11/24/8
f 7/19/7 6/14/9 10/13/9
f 10/13/9 11/20/7 7/19/7
f 14/26/10 9/18/10 5/17/10
f 5/17/10 8/25/10 14/26/10
f 18/30/11 15/27/11 16/28/11
f 16/28/11 17/29/11 18/30/11
f 15/27/12 14/26/10 8/25/10
f 8/25/10 16/28/12 15/27/12
f 16/32/13 8/8/13 7/7/13
f 7/7/13 13/31/13 16/32/13
f 12/34/14 11/24/14 14/23/14
f 14/23/14 15/33/14 12/34/14
f 21/38/15 17/35/15 19/36/15
f 19/36/15 20/37/15 21/38/15
f 17/40/16 16/32/16 13/31/16
f 13/31/16 19/39/16 17/40/16
f 22/42/17 12/34/17 15/33/17
f 15/33/17 18/41/17 22/42/17
f 19/44/18 13/22/18 12/21/18
f 12/21/18 22/43/18 19/44/18
f 25/48/19 20/45/19 23/46/19
f 23/46/19 24/47/19 25/48/19
f 23/52/20 22/49/20 18/50/20
f 18/50/20 26/51/20 23/52/20
f 20/45/21 19/53/21 22/54/21
f 22/54/21 23/46/21 20/45/21
f 26/58/22 18/55/22 17/56/22
f 17/56/22 21/57/22 26/58/22
f 29/62/23 27/59/23 25/60/23
f 25/60/23 28/61/23 29/62/23
f 30/64/24 26/58/24 21/57/24
f 21/57/24 27/63/24 30/64/24
f 27/66/25 21/38/25 20/37/25
f 20/37/25 25/65/25 27/66/25
f 24/68/26 23/52/26 26/51/26
f 26/51/26 30/67/26 24/68/26
f 32/70/27 31/69/27 29/62/27
f 29/62/27 28/61/27 32/70/27
f 32/70/28 24/71/28 30/72/28
f 30/72/28 31/69/28 32/70/28
f 28/61/29 25/73/29 24/74/29
f 24/74/29 32/70/29 28/61/29
f 31/69/30 30/75/30 27/76/30
f 27/76/30 29/62/30 31/69/30
f 33/77/31 34/78/31 35/79/31
f 35/80/32 36/81/32 33/82/32
f 33/83/33 37/84/33 34/85/33
f 33/86/34 38/87/34 37/88/34
f 33/89/35 36/90/35 38/91/35
f 35/92/36 39/93/36 36/94/36
f 34/95/37 40/96/37 35/97/37
f 37/98/38 41/99/38 34/100/38
f 38/101/39 42/102/39 37/103/39
f 36/104/40 43/105/40 38/106/40
f 35/107/41 40/108/41 39/109/41
f 34/110/42 41/111/42 40/112/42
f 37/113/43 42/114/43 41/115/43
f 38/116/44 43/117/44 42/118/44
f 36/119/45 39/120/45 43/121/45
f 40/122/46 44/123/46 39/124/46
f 41/125/47 44/126/47 40/127/47
f 42/128/48 44/129/48 41/130/48
f 43/131/49 44/132/49 42/133/49
f 39/134/50 44/135/50 43/136/50
