# File produced by Open Asset Import Library (http://www.assimp.sf.net)
# (assimp v3.1.13472455)

mtllib Untitled.mtl

# vertex positions
v 128.713821 -24.852020 263.940735
v 96.634911 286.218140 231.861755
v -367.088715 286.218140 231.861771
v -399.167603 -24.852020 263.940735
v -367.088715 286.218079 -231.861816
v -399.167603 -24.852112 -263.940704
v 96.634888 286.218079 -231.861847
v 128.713806 -24.852112 -263.940735
v 155.190308 286.218048 -290.417297
v 155.190323 286.218170 290.417175
v -425.644135 286.218048 -290.417267
v -388.321228 394.094574 -253.094315
v 117.867363 394.094574 -253.094345
v -425.644135 286.218170 290.417175
v -388.321228 417.701416 -253.094315
v 117.867363 417.701416 -253.094345
v 117.867386 394.094635 253.094223
v -388.321228 394.094635 253.094254
v 117.867386 417.701477 253.094223
v 82.563148 499.873322 -217.790131
v 82.563171 499.873383 217.789978
v -388.321228 417.701477 253.094254
v -353.016937 499.873322 -217.790100
v -353.016937 518.643005 -217.790115
v 82.563148 518.643005 -217.790146
v -353.016937 499.873383 217.789993
v -353.016937 518.643127 217.789978
v 82.563171 518.643127 217.789963
v 41.529797 604.134583 176.756607
v -311.983582 604.134583 176.756622
v 41.529778 604.134583 -176.756790
v -59.661739 678.339294 -75.565269
v -59.661724 678.339294 75.565063
v -311.983582 604.134583 -176.756775
v -210.792053 678.339294 -75.565262
v -197.222565 706.529053 -61.995777
v -73.231224 706.529053 -61.995777
v -210.792053 678.339294 75.565079
v -73.231224 706.529053 61.995564
v -73.231224 715.883301 -61.995785
v -73.231224 715.883301 61.995560
v -197.222565 706.529053 61.995564
v -197.222565 715.883301 -61.995785
v -197.222565 715.883301 61.995560
v -186.689438 739.981689 51.462425
v -186.689438 739.981689 -51.462662
v -83.764343 739.981689 -51.462662
v -186.689438 754.529663 -51.462662
v -83.764343 754.529663 -51.462662
v -83.764343 739.981689 51.462425
v -83.764343 754.529663 51.462425
v -102.864868 779.745300 -32.362156
v -102.864868 779.745300 32.361919
v -186.689438 754.529663 51.462425
v -167.588928 779.745300 -32.362156
v -167.588928 779.745300 32.361919
v -68.785194 200.996155 293.338226
v -186.021973 200.996155 293.338226
v -186.021973 200.996155 280.200378
v -68.785194 200.996155 280.200378
v -206.754395 -37.764984 293.338257
v -206.754395 221.728607 293.338226
v -206.754425 221.728577 201.105240
v -206.754425 -37.765015 201.105270
v -48.052761 221.728577 201.105240
v -48.052761 -37.765015 201.105270
v -48.052757 221.728607 293.338226
v -48.052757 -37.764984 293.338257
v -189.778702 237.674789 288.841614
v -189.778702 237.674774 205.601837
v -68.785194 -17.032562 293.338257
v -186.021973 -17.032562 293.338257
v -68.785194 -17.032562 280.200409
v -186.021973 -17.032562 280.200409
v -65.028473 237.674774 205.601837
v -189.778702 248.565552 205.601837
v -65.028473 248.565552 205.601837
v -65.028473 237.674789 288.841614
v -178.768082 270.299408 214.663315
v -76.039101 270.299408 214.663315
v -65.028473 248.565582 288.841614
v -189.778702 248.565582 288.841614
v -178.768082 270.299408 279.780121
v -76.039101 270.299408 279.780121
v 347.818573 -63.635162 173.607819
v 313.562317 147.900406 139.351440
v 34.859295 147.900406 139.351456
v 0.602992 -63.635162 173.607819
v 34.859283 147.900375 -139.351517
v 0.602977 -63.635223 -173.607803
v 313.562317 147.900375 -139.351532
v 347.818573 -63.635223 -173.607819
v 286.613098 182.486374 -112.402367
v 286.613098 182.486404 112.402283
v 61.808453 182.486374 -112.402359
v 61.808453 198.584656 -112.402359
v 286.613098 198.584656 -112.402367
v 61.808464 182.486404 112.402298
v 89.121239 238.023483 -85.089569
v 259.300293 238.023483 -85.089569
v 286.613098 198.584686 112.402283
v 61.808464 198.584686 112.402298
v 89.121254 238.023514 85.089485
v 259.300293 238.023514 85.089478
v 500.000000 -147.766846 500.000061
v 500.000000 -2.244659 500.000000
v -500.000000 -2.244659 500.000000
v -500.000000 -147.766846 500.000061
v -500.000000 -2.244812 -500.000000
v -500.000000 -147.766998 -500.000000
v 500.000000 -2.244812 -500.000000
v 500.000000 -147.766998 -500.000000

# UV coordinates
vt 0.454966 0.577068
vt 0.390052 0.497314
vt 0.497314 0.390052
vt 0.577067 0.454966
vt 0.577067 0.122306
vt 0.497314 0.187220
vt 0.390052 0.079958
vt 0.454966 0.000204
vt 0.122306 0.000204
vt 0.187220 0.079958
vt 0.079958 0.187220
vt 0.000204 0.122306
vt 0.000204 0.454966
vt 0.079958 0.390052
vt 0.187220 0.497314
vt 0.122306 0.577068
vt 0.750154 0.922726
vt 0.577475 0.922726
vt 0.577475 0.750048
vt 0.750154 0.750048
vt 0.079958 0.362964
vt 0.214308 0.497314
vt 0.079958 0.214308
vt 0.214308 0.079958
vt 0.232079 0.114995
vt 0.114995 0.232079
vt 0.497314 0.214308
vt 0.362963 0.079958
vt 0.362963 0.497314
vt 0.497314 0.362964
vt 0.237539 0.120455
vt 0.120455 0.237539
vt 0.345193 0.462277
vt 0.462277 0.345193
vt 0.114994 0.345193
vt 0.232079 0.462277
vt 0.462277 0.232079
vt 0.345193 0.114995
vt 0.237539 0.456817
vt 0.120455 0.339733
vt 0.149308 0.327212
vt 0.250060 0.427964
vt 0.339732 0.456817
vt 0.456817 0.339733
vt 0.456817 0.237539
vt 0.339732 0.120455
vt 0.149308 0.250060
vt 0.250060 0.149308
vt 0.254401 0.153649
vt 0.153649 0.254401
vt 0.427964 0.250060
vt 0.327212 0.149308
vt 0.327212 0.427964
vt 0.427964 0.327212
vt 0.423622 0.322870
vt 0.322870 0.423622
vt 0.310427 0.392197
vt 0.392196 0.310427
vt 0.153649 0.322870
vt 0.254401 0.423622
vt 0.423622 0.254401
vt 0.322870 0.153649
vt 0.266845 0.392197
vt 0.185075 0.310427
vt 0.237506 0.304808
vt 0.272463 0.339765
vt 0.392196 0.266845
vt 0.310427 0.185075
vt 0.266844 0.185075
vt 0.185075 0.266845
vt 0.237506 0.272463
vt 0.272463 0.237506
vt 0.276561 0.247881
vt 0.247881 0.276561
vt 0.339765 0.272463
vt 0.304808 0.237506
vt 0.304808 0.339765
vt 0.339765 0.304808
vt 0.276561 0.329390
vt 0.247881 0.300710
vt 0.250045 0.298547
vt 0.278725 0.327226
vt 0.300710 0.329390
vt 0.329390 0.300710
vt 0.329390 0.276561
vt 0.300710 0.247881
vt 0.298547 0.250045
vt 0.327226 0.278725
vt 0.318707 0.282372
vt 0.294900 0.258565
vt 0.278725 0.250045
vt 0.250045 0.278725
vt 0.298547 0.327226
vt 0.327226 0.298547
vt 0.258565 0.282372
vt 0.282372 0.258565
vt 0.285737 0.261930
vt 0.261930 0.285737
vt 0.294900 0.318707
vt 0.318707 0.294900
vt 0.258565 0.294900
vt 0.282372 0.318707
vt 0.285737 0.315342
vt 0.261930 0.291535
vt 0.273665 0.288636
vt 0.288636 0.303607
vt 0.291535 0.315342
vt 0.315342 0.291535
vt 0.315342 0.285737
vt 0.291535 0.261930
vt 0.288636 0.273665
vt 0.303607 0.288636
vt 0.544907 0.729813
vt 0.544907 0.691463
vt 0.549204 0.691463
vt 0.549204 0.729813
vt 0.267079 0.749535
vt 0.327802 0.690222
vt 0.348884 0.711804
vt 0.288161 0.771118
vt 0.423908 0.774305
vt 0.364594 0.713582
vt 0.401731 0.677307
vt 0.461045 0.738030
vt 0.461045 0.602245
vt 0.400322 0.661559
vt 0.379240 0.639976
vt 0.439963 0.580663
vt 0.500211 0.691463
vt 0.530382 0.691463
vt 0.530382 0.743377
vt 0.500211 0.743377
vt 0.334279 0.685950
vt 0.353306 0.705429
vt 0.304103 0.587066
vt 0.276669 0.613863
vt 0.267079 0.613751
vt 0.304216 0.577476
vt 0.353939 0.638086
vt 0.363530 0.638198
vt 0.326505 0.664883
vt 0.326393 0.674474
vt 0.499803 0.691463
vt 0.499803 0.762784
vt 0.461453 0.762784
vt 0.461453 0.691463
vt 0.544499 0.691463
vt 0.544499 0.729813
vt 0.540201 0.729813
vt 0.540201 0.691463
vt 0.539793 0.691463
vt 0.539793 0.762784
vt 0.535495 0.762784
vt 0.535495 0.691463
vt 0.530790 0.762784
vt 0.530790 0.691463
vt 0.535087 0.691463
vt 0.535087 0.762784
vt 0.393972 0.677310
vt 0.364780 0.705825
vt 0.362290 0.703277
vt 0.391482 0.674762
vt 0.363344 0.645956
vt 0.334152 0.674470
vt 0.393844 0.665831
vt 0.374818 0.646352
vt 0.359484 0.695250
vt 0.383523 0.671769
vt 0.365834 0.648504
vt 0.336642 0.677019
vt 0.391296 0.668320
vt 0.372269 0.648842
vt 0.336828 0.683461
vt 0.355854 0.702939
vt 0.344600 0.680012
vt 0.368639 0.656531
vt 0.000204 0.653919
vt 0.070302 0.665125
vt 0.070302 0.756293
vt 0.000204 0.767499
vt 0.076648 0.843942
vt 0.087853 0.773844
vt 0.179021 0.773844
vt 0.190227 0.843942
vt 0.266671 0.767499
vt 0.196573 0.756293
vt 0.196573 0.665125
vt 0.266671 0.653919
vt 0.190227 0.577476
vt 0.179021 0.647574
vt 0.087853 0.647574
vt 0.076648 0.577476
vt 0.575032 0.691055
vt 0.461453 0.691055
vt 0.461453 0.577476
vt 0.575032 0.577476
vt 0.170206 0.661916
vt 0.096669 0.661916
vt 0.182230 0.673940
vt 0.182230 0.747478
vt 0.176964 0.747478
vt 0.176964 0.673940
vt 0.096669 0.759502
vt 0.170206 0.759502
vt 0.084645 0.673940
vt 0.084645 0.747478
vt 0.161272 0.738543
vt 0.161272 0.682875
vt 0.089911 0.673940
vt 0.089911 0.747478
vt 0.170206 0.667182
vt 0.096669 0.667182
vt 0.096669 0.754236
vt 0.170206 0.754236
vt 0.105603 0.738543
vt 0.105603 0.682875
vt 0.625078 0.749640
vt 0.625078 0.702037
vt 0.952193 0.702037
vt 0.952193 0.749640
vt 0.952193 0.000204
vt 0.999796 0.000204
vt 0.999796 0.327319
vt 0.952193 0.327319
vt 0.952193 0.374922
vt 0.625078 0.374922
vt 0.625078 0.327319
vt 0.577475 0.327319
vt 0.577475 0.000204
vt 0.625078 0.000204

# vertex normals
vn 0.000000 0.102581 0.994725
vn -0.994725 0.102580 -0.000000
vn -0.000000 0.102580 -0.994725
vn 0.994725 0.102580 -0.000000
vn 0.000000 -1.000000 0.000000
vn -0.000000 0.326962 -0.945037
vn 0.000000 -1.000000 0.000000
vn -0.000000 -1.000000 0.000000
vn -0.000000 -0.000000 -1.000000
vn 0.000000 0.326962 0.945037
vn 0.945037 0.326962 -0.000000
vn -0.945037 0.326962 -0.000000
vn 0.918790 0.394747 -0.000000
vn 0.000000 0.000000 1.000000
vn 1.000000 -0.000000 -0.000000
vn -1.000000 0.000000 0.000000
vn -0.000000 -0.000000 -1.000000
vn -0.918790 0.394747 -0.000000
vn -0.000000 0.394747 -0.918790
vn 0.000000 0.394748 0.918789
vn 0.000000 0.432709 0.901534
vn 0.000000 0.000000 1.000000
vn 1.000000 -0.000000 -0.000000
vn 0.591351 0.806414 -0.000000
vn 0.901534 0.432709 -0.000000
vn -0.901534 0.432709 -0.000000
vn -0.000000 0.432709 -0.901534
vn 0.000000 0.433729 -0.901044
vn -0.591351 0.806414 -0.000000
vn 0.000000 0.806414 -0.591351
vn -0.000000 0.806414 0.591351
vn 1.000000 0.000000 0.000000
vn -0.000000 0.433729 0.901043
vn 0.901044 0.433728 -0.000000
vn -0.901044 0.433728 -0.000000
vn -0.916296 0.400503 -0.000000
vn 0.000000 -0.000000 -1.000000
vn 0.000000 0.000000 1.000000
vn 0.000000 0.400503 -0.916296
vn 0.000000 0.400503 0.916295
vn 0.916296 0.400503 -0.000000
vn 0.797126 0.603813 -0.000000
vn 0.000000 1.000000 -0.000000
vn -0.797127 0.603812 -0.000000
vn 0.000000 0.603813 -0.797126
vn 0.000000 0.603813 0.797126
vn -1.000000 0.000000 0.000000
vn 1.000000 -0.000000 -0.000000
vn -0.684659 0.728863 -0.000000
vn 0.000000 -0.000002 1.000000
vn 0.000000 0.000002 1.000000
vn 0.000000 0.271403 -0.962466
vn 0.000000 0.271403 0.962466
vn 0.684659 0.728863 -0.000000
vn 0.000000 0.384821 -0.922991
vn 0.000000 0.384822 0.922991
vn 0.892056 0.451926 -0.000000
vn -0.892056 0.451925 -0.000000
vn 0.000000 0.159859 0.987140
vn -0.987140 0.159858 0.000000
vn -0.000000 0.159858 -0.987140
vn 0.987140 0.159858 -0.000000
vn 0.788811 0.614636 -0.000000
vn -0.000000 -0.000000 -1.000000
vn -0.788811 0.614636 -0.000000
vn -0.000000 0.614636 -0.788811
vn 0.000000 0.614636 0.788811
vn -0.000000 0.569337 -0.822105
vn 0.000000 0.000000 1.000000
vn -1.000000 0.000000 0.000000
vn 0.000000 0.569337 0.822104
vn 0.822104 0.569337 -0.000000
vn -0.822104 0.569337 -0.000000

# Mesh
g Cube.002
usemtl DefaultMaterial
f 4/4/1 1/1/1 2/2/1
f 2/2/1 3/3/1 4/4/1
f 6/8/2 4/5/2 3/6/2
f 3/6/2 5/7/2 6/8/2
f 8/12/3 6/9/3 5/10/3
f 5/10/3 7/11/3 8/12/3
f 1/16/4 8/13/4 7/14/4
f 7/14/4 2/15/4 1/16/4
f 1/20/5 4/17/5 6/18/5
f 6/18/5 8/19/5 1/20/5
f 10/22/5 2/15/5 7/14/5
f 7/14/5 9/21/5 10/22/5
f 13/26/6 9/23/6 11/24/6
f 11/24/6 12/25/6 13/26/6
f 11/28/5 5/7/5 3/6/5
f 3/6/5 14/27/5 11/28/5
f 9/23/7 7/11/7 5/10/7
f 5/10/7 11/24/7 9/23/7
f 14/30/8 3/3/8 2/2/8
f 2/2/8 10/29/8 14/30/8
f 16/32/9 13/26/9 12/25/9
f 12/25/9 15/31/9 16/32/9
f 18/34/10 14/30/10 10/29/10
f 10/29/10 17/33/10 18/34/10
f 17/36/11 10/22/11 9/21/11
f 9/21/11 13/35/11 17/36/11
f 12/38/12 11/28/12 14/27/12
f 14/27/12 18/37/12 12/38/12
f 21/42/13 19/39/13 16/40/13
f 16/40/13 20/41/13 21/42/13
f 22/44/14 18/34/14 17/33/14
f 17/33/14 19/43/14 22/44/14
f 19/39/15 17/36/15 13/35/15
f 13/35/15 16/40/15 19/39/15
f 15/46/16 12/38/16 18/37/16
f 18/37/16 22/45/16 15/46/16
f 25/50/17 20/47/17 23/48/17
f 23/48/17 24/49/17 25/50/17
f 23/52/18 15/46/18 22/45/18
f 22/45/18 26/51/18 23/52/18
f 20/47/19 16/32/19 15/31/19
f 15/31/19 23/48/19 20/47/19
f 26/54/20 22/44/20 19/43/20
f 19/43/20 21/53/20 26/54/20
f 30/58/21 27/55/21 28/56/21
f 28/56/21 29/57/21 30/58/21
f 27/55/22 26/54/22 21/53/22
f 21/53/22 28/56/22 27/55/22
f 28/60/23 21/42/23 20/41/23
f 20/41/23 25/59/23 28/60/23
f 24/62/16 23/52/16 26/51/16
f 26/51/16 27/61/16 24/62/16
f 33/66/24 29/63/24 31/64/24
f 31/64/24 32/65/24 33/66/24
f 29/63/25 28/60/25 25/59/25
f 25/59/25 31/64/25 29/63/25
f 34/68/26 24/62/26 27/61/26
f 27/61/26 30/67/26 34/68/26
f 31/70/27 25/50/27 24/49/27
f 24/49/27 34/69/27 31/70/27
f 37/74/28 32/71/28 35/72/28
f 35/72/28 36/73/28 37/74/28
f 35/76/29 34/68/29 30/67/29
f 30/67/29 38/75/29 35/76/29
f 32/71/30 31/70/30 34/69/30
f 34/69/30 35/72/30 32/71/30
f 38/78/31 30/58/31 29/57/31
f 29/57/31 33/77/31 38/78/31
f 41/82/32 39/79/32 37/80/32
f 37/80/32 40/81/32 41/82/32
f 42/84/33 38/78/33 33/77/33
f 33/77/33 39/83/33 42/84/33
f 39/79/34 33/66/34 32/65/34
f 32/65/34 37/80/34 39/79/34
f 36/86/35 35/76/35 38/75/35
f 38/75/35 42/85/35 36/86/35
f 46/90/36 43/87/36 44/88/36
f 44/88/36 45/89/36 46/90/36
f 43/87/16 36/86/16 42/85/16
f 42/85/16 44/88/16 43/87/16
f 40/92/37 37/74/37 36/73/37
f 36/73/37 43/91/37 40/92/37
f 44/94/38 42/84/38 39/83/38
f 39/83/38 41/93/38 44/94/38
f 49/98/37 47/95/37 46/96/37
f 46/96/37 48/97/37 49/98/37
f 47/95/39 40/92/39 43/91/39
f 43/91/39 46/96/39 47/95/39
f 45/100/40 44/94/40 41/93/40
f 41/93/40 50/99/40 45/100/40
f 50/102/41 41/82/41 40/81/41
f 40/81/41 47/101/41 50/102/41
f 53/106/42 51/103/42 49/104/42
f 49/104/42 52/105/42 53/106/42
f 54/108/38 45/100/38 50/99/38
f 50/99/38 51/107/38 54/108/38
f 51/103/32 50/102/32 47/101/32
f 47/101/32 49/104/32 51/103/32
f 48/110/16 46/90/16 45/89/16
f 45/89/16 54/109/16 48/110/16
f 52/105/43 55/111/43 56/112/43
f 56/112/43 53/106/43 52/105/43
f 55/111/44 48/110/44 54/109/44
f 54/109/44 56/112/44 55/111/44
f 52/105/45 49/98/45 48/97/45
f 48/97/45 55/111/45 52/105/45
f 56/112/46 54/108/46 51/107/46
f 51/107/46 53/106/46 56/112/46
f 60/116/5 57/113/5 58/114/5
f 58/114/5 59/115/5 60/116/5
f 64/120/47 61/117/47 62/118/47
f 62/118/47 63/119/47 64/120/47
f 66/124/37 64/121/37 63/122/37
f 63/122/37 65/123/37 66/124/37
f 68/128/48 66/125/48 65/126/48
f 65/126/48 67/127/48 68/128/48
f 68/132/5 61/129/5 64/130/5
f 64/130/5 66/131/5 68/132/5
f 70/134/49 63/119/49 62/118/49
f 62/118/49 69/133/49 70/134/49
f 68/138/50 71/135/50 72/136/50
f 72/136/50 61/137/50 68/138/50
f 67/140/38 57/139/38 71/135/50
f 71/135/50 68/138/50 67/140/38
f 62/142/51 58/141/51 57/139/38
f 57/139/38 67/140/38 62/142/51
f 61/137/50 72/136/50 58/141/51
f 58/141/51 62/142/51 61/137/50
f 74/146/38 73/143/38 60/144/38
f 60/144/38 59/145/38 74/146/38
f 74/150/43 72/147/43 71/148/43
f 71/148/43 73/149/43 74/150/43
f 59/154/32 58/151/32 72/152/32
f 72/152/32 74/153/32 59/154/32
f 73/158/16 71/155/16 57/156/16
f 57/156/16 60/157/16 73/158/16
f 77/162/37 75/159/37 70/160/37
f 70/160/37 76/161/37 77/162/37
f 75/159/52 65/123/52 63/122/52
f 63/122/52 70/160/52 75/159/52
f 69/164/53 62/142/53 67/140/53
f 67/140/53 78/163/53 69/164/53
f 78/166/54 67/127/54 65/126/54
f 65/126/54 75/165/54 78/166/54
f 80/168/55 77/162/55 76/161/55
f 76/161/55 79/167/55 80/168/55
f 82/170/38 69/164/38 78/163/38
f 78/163/38 81/169/38 82/170/38
f 81/172/32 78/166/32 75/165/32
f 75/165/32 77/171/32 81/172/32
f 76/174/16 70/134/16 69/133/16
f 69/133/16 82/173/16 76/174/16
f 80/168/43 79/167/43 83/175/43
f 83/175/43 84/176/43 80/168/43
f 83/175/56 82/170/56 81/169/56
f 81/169/56 84/176/56 83/175/56
f 84/176/57 81/172/57 77/171/57
f 77/171/57 80/168/57 84/176/57
f 79/167/58 76/174/58 82/173/58
f 82/173/58 83/175/58 79/167/58
f 88/180/59 85/177/59 86/178/59
f 86/178/59 87/179/59 88/180/59
f 90/184/60 88/181/60 87/182/60
f 87/182/60 89/183/60 90/184/60
f 92/188/61 90/185/61 89/186/61
f 89/186/61 91/187/61 92/188/61
f 85/192/62 92/189/62 91/190/62
f 91/190/62 86/191/62 85/192/62
f 85/196/5 88/193/5 90/194/5
f 90/194/5 92/195/5 85/196/5
f 94/198/63 86/191/63 91/190/63
f 91/190/63 93/197/63 94/198/63
f 97/202/64 93/199/64 95/200/64
f 95/200/64 96/201/64 97/202/64
f 95/204/65 89/183/65 87/182/65
f 87/182/65 98/203/65 95/204/65
f 93/199/66 91/187/66 89/186/66
f 89/186/66 95/200/66 93/199/66
f 98/206/67 87/179/67 86/178/67
f 86/178/67 94/205/67 98/206/67
f 100/208/68 97/202/68 96/201/68
f 96/201/68 99/207/68 100/208/68
f 102/210/69 98/206/69 94/205/69
f 94/205/69 101/209/69 102/210/69
f 101/212/32 94/198/32 93/197/32
f 93/197/32 97/211/32 101/212/32
f 96/214/70 95/204/70 98/203/70
f 98/203/70 102/213/70 96/214/70
f 100/208/43 99/207/43 103/215/43
f 103/215/43 104/216/43 100/208/43
f 103/215/71 102/210/71 101/209/71
f 101/209/71 104/216/71 103/215/71
f 104/216/72 101/212/72 97/211/72
f 97/211/72 100/208/72 104/216/72
f 99/207/73 96/214/73 102/213/73
f 102/213/73 103/215/73 99/207/73
f 108/220/38 105/217/38 106/218/38
f 106/218/38 107/219/38 108/220/38
f 110/224/16 108/221/16 107/222/16
f 107/222/16 109/223/16 110/224/16
f 112/227/37 110/224/37 109/225/37
f 109/225/37 111/226/37 112/227/37
f 105/230/32 112/227/32 111/228/32
f 111/228/32 106/229/32 105/230/32
f 105/230/5 108/221/5 110/224/5
f 110/224/5 112/227/5 105/230/5
f 111/226/43 109/225/43 107/219/43
f 107/219/43 106/218/43 111/226/43
