# File produced by Open Asset Import Library (http://www.assimp.sf.net)
# (assimp v3.1.13472455)

mtllib Untitled.mtl

# vertex positions
v -25.000000 0.000004 25.000000
v -25.000000 -0.000004 -25.000000
v 25.000000 -0.000004 -25.000000
v 25.000000 0.000004 25.000000
v 20.998869 8.161101 20.998869
v 20.998869 8.161094 -20.998873
v 20.998869 12.474003 -20.998873
v 20.998869 12.474010 20.998869
v -20.998869 8.161101 20.998869
v -20.998869 8.161094 -20.998873
v -20.998869 12.474003 -20.998873
v -16.379705 17.820387 -16.379709
v 16.379705 17.820387 -16.379709
v -20.998869 12.474010 20.998869
v -16.379705 17.820391 16.379700
v 16.379705 17.820391 16.379700
v 12.819794 17.820391 12.819791
v -12.819794 17.820391 12.819791
v 12.819794 17.820387 -12.819797
v 12.819794 7.870726 -12.819794
v 12.819794 7.870729 12.819793
v -12.819794 17.820387 -12.819797
v -12.819794 7.870729 12.819793
v -12.819794 7.870726 -12.819794
v 0.000000 11.210261 -0.000002
v -1.776376 14.763112 5.467215
v 4.650708 14.763112 3.378895
v 4.650708 14.763110 -3.378900
v -5.748631 14.763111 -0.000002
v -1.776376 14.763110 -5.467219
v 5.748631 20.511772 -0.000003
v 1.776376 20.511772 5.467214
v -4.650708 20.511772 3.378894
v -4.650708 20.511772 -3.378901
v 1.776376 20.511772 -5.467220
v 0.000000 24.064623 -0.000004

# UV coordinates
vt 0.000298 0.711035
vt 0.000298 0.230985
vt 0.480348 0.230985
vt 0.480348 0.711035
vt 0.855650 0.476529
vt 0.855650 0.879749
vt 0.814242 0.879749
vt 0.814242 0.476529
vt 0.942915 0.438114
vt 0.942915 0.918164
vt 0.711632 0.438114
vt 0.711632 0.918164
vt 0.624367 0.879749
vt 0.624367 0.476529
vt 0.038713 0.143721
vt 0.441933 0.143721
vt 0.441933 0.798300
vt 0.038713 0.798300
vt 0.441933 0.102312
vt 0.038713 0.102312
vt 0.083062 0.034477
vt 0.397585 0.034477
vt 0.582959 0.879749
vt 0.582959 0.476528
vt 0.441933 0.839708
vt 0.038713 0.839708
vt 0.083062 0.907544
vt 0.397585 0.907544
vt 0.363406 0.941722
vt 0.117240 0.941722
vt 0.746407 0.835400
vt 0.746407 0.520877
vt 0.515123 0.835400
vt 0.515123 0.520877
vt 0.822637 0.437517
vt 0.576471 0.437517
vt 0.576471 0.341991
vt 0.822637 0.341991
vt 0.712228 0.801221
vt 0.712228 0.555056
vt 0.480945 0.801221
vt 0.480945 0.555056
vt 0.117240 0.000298
vt 0.363406 0.000298
vt 0.822637 0.095825
vt 0.576471 0.095825
vt 0.576471 0.000298
vt 0.822637 0.000298
vt 0.480945 0.341991
vt 0.480945 0.095825
vt 0.918164 0.095825
vt 0.918164 0.341991
vt 0.935236 0.951201
vt 0.991425 0.918760
vt 0.991425 0.983642
vt 0.999701 0.699432
vt 0.943512 0.666991
vt 0.999701 0.634550
vt 0.651304 0.951202
vt 0.707494 0.918760
vt 0.707494 0.983643
vt 0.821067 0.918760
vt 0.821067 0.983642
vt 0.764877 0.951201
vt 0.943512 0.601512
vt 0.999702 0.569071
vt 0.999702 0.633953
vt 0.821664 0.951203
vt 0.877853 0.918760
vt 0.877853 0.983643
vt 0.918760 0.294658
vt 0.974950 0.262216
vt 0.974950 0.327099
vt 0.974950 0.261619
vt 0.918760 0.229178
vt 0.974950 0.196736
vt 0.974950 0.000298
vt 0.974950 0.065181
vt 0.918760 0.032740
vt 0.537134 0.918760
vt 0.537134 0.983643
vt 0.480945 0.951201
vt 0.974950 0.130661
vt 0.918760 0.098219
vt 0.974950 0.065778
vt 0.918760 0.360137
vt 0.974950 0.327695
vt 0.974950 0.392577
vt 0.934639 0.983643
vt 0.878450 0.951200
vt 0.934639 0.918760
vt 0.537731 0.951201
vt 0.593921 0.918760
vt 0.593921 0.983642
vt 0.918760 0.163698
vt 0.974950 0.131257
vt 0.974950 0.196140
vt 0.594518 0.951201
vt 0.650707 0.918760
vt 0.650707 0.983643
vt 0.943512 0.470555
vt 0.999701 0.438114
vt 0.999701 0.502996
vt 0.999702 0.764910
vt 0.943512 0.732469
vt 0.999702 0.700028
vt 0.999702 0.568475
vt 0.943512 0.536034
vt 0.999702 0.503592
vt 0.708090 0.951201
vt 0.764280 0.918760
vt 0.764280 0.983642

# vertex normals
vn 0.000000 -1.000000 0.000000
vn 1.000000 0.000000 0.000000
vn 0.897895 0.440210 -0.000000
vn -0.897895 0.440210 -0.000000
vn 0.000000 0.440210 -0.897895
vn 0.000000 0.440210 0.897895
vn 0.000000 0.653769 -0.756694
vn -1.000000 0.000000 0.000000
vn 0.000000 -0.000000 -1.000000
vn 0.000000 0.000000 1.000000
vn 0.000000 1.000000 -0.000000
vn 0.000000 0.653769 0.756694
vn 0.756694 0.653769 -0.000000
vn -0.756694 0.653769 -0.000000
vn 0.000000 1.000000 -0.000000
vn -0.000000 1.000000 -0.000000
vn -0.187597 0.794651 -0.577354
vn -0.607064 0.794652 -0.000000
vn 0.491122 0.794652 -0.356829
vn 0.491122 0.794652 0.356829
vn -0.187597 0.794651 0.577354
vn -0.982246 0.187597 -0.000000
vn -0.303535 0.187589 -0.934171
vn 0.794649 0.187587 -0.577359
vn 0.794649 0.187587 0.577359
vn -0.303535 0.187589 0.934171
vn -0.794649 -0.187587 -0.577359
vn 0.303535 -0.187589 -0.934171
vn 0.982246 -0.187597 0.000000
vn 0.303535 -0.187589 0.934171
vn -0.794649 -0.187587 0.577359
vn -0.491122 -0.794652 -0.356829
vn 0.187597 -0.794651 -0.577354
vn 0.607064 -0.794653 0.000000
vn 0.187597 -0.794651 0.577354
vn -0.491122 -0.794652 0.356829

# Mesh
g Plane.001
usemtl DefaultMaterial
f 4/4/1 1/1/1 2/2/1
f 2/2/1 3/3/1 4/4/1
f 8/8/2 5/5/2 6/6/2
f 6/6/2 7/7/2 8/8/2
f 5/5/3 4/9/3 3/10/3
f 3/10/3 6/6/3 5/5/3
f 10/14/4 2/11/4 1/12/4
f 1/12/4 9/13/4 10/14/4
f 6/16/5 3/3/5 2/2/5
f 2/2/5 10/15/5 6/16/5
f 9/18/6 1/1/6 4/4/6
f 4/4/6 5/17/6 9/18/6
f 13/22/7 7/19/7 11/20/7
f 11/20/7 12/21/7 13/22/7
f 11/24/8 10/14/8 9/13/8
f 9/13/8 14/23/8 11/24/8
f 7/19/9 6/16/9 10/15/9
f 10/15/9 11/20/9 7/19/9
f 14/26/10 9/18/10 5/17/10
f 5/17/10 8/25/10 14/26/10
f 18/30/11 15/27/11 16/28/11
f 16/28/11 17/29/11 18/30/11
f 15/27/12 14/26/12 8/25/12
f 8/25/12 16/28/12 15/27/12
f 16/32/13 8/8/13 7/7/13
f 7/7/13 13/31/13 16/32/13
f 12/34/14 11/24/14 14/23/14
f 14/23/14 15/33/14 12/34/14
f 21/38/8 17/35/8 19/36/8
f 19/36/8 20/37/8 21/38/8
f 17/40/15 16/32/15 13/31/15
f 13/31/15 19/39/15 17/40/15
f 22/42/16 12/34/16 15/33/16
f 15/33/16 18/41/16 22/42/16
f 19/44/11 13/22/11 12/21/11
f 12/21/11 22/43/11 19/44/11
f 24/46/11 23/45/11 21/38/11
f 21/38/11 20/37/11 24/46/11
f 24/46/2 22/47/2 18/48/2
f 18/48/2 23/45/2 24/46/2
f 20/37/10 19/49/10 22/50/10
f 22/50/10 24/46/10 20/37/10
f 23/45/9 18/51/9 17/52/9
f 17/52/9 21/38/9 23/45/9
f 25/53/17 26/54/17 27/55/17
f 27/56/18 28/57/18 25/58/18
f 25/59/19 29/60/19 26/61/19
f 25/62/20 30/63/20 29/64/20
f 25/65/21 28/66/21 30/67/21
f 27/68/22 31/69/22 28/70/22
f 26/71/23 32/72/23 27/73/23
f 29/74/24 33/75/24 26/76/24
f 30/77/25 34/78/25 29/79/25
f 28/80/26 35/81/26 30/82/26
f 27/83/27 32/84/27 31/85/27
f 26/86/28 33/87/28 32/88/28
f 29/89/29 34/90/29 33/91/29
f 30/92/30 35/93/30 34/94/30
f 28/95/31 31/96/31 35/97/31
f 32/98/32 36/99/32 31/100/32
f 33/101/33 36/102/33 32/103/33
f 34/104/34 36/105/34 33/106/34
f 35/107/35 36/108/35 34/109/35
f 31/110/36 36/111/36 35/112/36
