# File produced by Open Asset Import Library (http://www.assimp.sf.net)
# (assimp v3.1.13472455)

mtllib Untitled.mtl

# vertex positions
v -75.852409 5.945785 16.063097
v -37.926205 5.945785 16.063097
v -37.926205 -23.023182 16.063093
v -75.852409 43.524044 16.063099
v -37.926205 43.524044 16.063099
v 37.926205 5.945785 16.063097
v 37.926205 43.524044 16.063099
v 75.852409 43.524044 16.063099
v 75.852409 5.945785 16.063097
v 0.000000 43.524044 16.063099
v 0.000000 5.945785 16.063097
v 100.000000 50.458717 0.000002
v 77.212738 43.914707 -21.804258
v 77.212738 5.662518 -21.804260
v 100.000000 0.917431 0.000000
v -0.000000 -75.465027 -0.000004
v -0.000000 -53.314468 -21.804262
v -38.606369 -23.825974 -21.804262
v -50.000000 -37.273796 -0.000002
v 0.000000 100.000000 0.000004
v 0.000000 82.166878 -21.804255
v 38.606369 82.166878 -21.804255
v 50.000000 100.000000 0.000004
v -37.926205 81.102303 16.063101
v 0.000000 81.102303 16.063101
v -100.000000 50.458717 0.000002
v -77.212738 43.914707 -21.804258
v -38.606369 82.166878 -21.804255
v -50.000000 100.000000 0.000004
v -100.000000 0.917431 0.000000
v -77.212738 5.662518 -21.804260
v 37.926205 -23.023182 16.063093
v 37.926205 81.102303 16.063101
v 50.000000 -37.273796 -0.000002
v 38.606369 -23.825974 -21.804262
v -0.000000 -23.023182 16.063093
v -0.000000 -51.992142 16.063093
v 38.606369 43.914707 -21.804258
v -38.606369 43.914707 -21.804258
v 0.000000 43.914707 -21.804258
v -38.606369 5.662518 -21.804260
v -0.000000 5.662518 -21.804260
v 38.606369 5.662518 -21.804260
v -0.000000 -23.825974 -21.804262

# UV coordinates
vt 0.812660 0.000346
vt 0.723369 0.090463
vt 0.654536 0.022261
vt 0.901951 0.088817
vt 0.812660 0.178935
vt 0.544788 0.270698
vt 0.634079 0.359170
vt 0.544788 0.449287
vt 0.455498 0.360816
vt 0.723370 0.269052
vt 0.634079 0.180581
vt 0.105842 0.859878
vt 0.000346 0.837989
vt 0.000346 0.710036
vt 0.105842 0.694164
vt 0.634065 0.664109
vt 0.727801 0.709084
vt 0.727801 0.871583
vt 0.634065 0.874565
vt 0.455498 0.617227
vt 0.549719 0.617227
vt 0.549719 0.746364
vt 0.455498 0.784476
vt 0.901951 0.267406
vt 0.812660 0.357524
vt 0.100884 0.693473
vt 0.000346 0.654734
vt 0.000346 0.472942
vt 0.100883 0.458030
vt 0.294403 0.694164
vt 0.399899 0.710037
vt 0.399899 0.837989
vt 0.294403 0.859879
vt 0.475954 0.202496
vt 0.723370 0.447641
vt 0.634065 0.452961
vt 0.727801 0.449979
vt 0.727801 0.612478
vt 0.634065 0.663417
vt 0.455498 0.449979
vt 0.549719 0.488090
vt 0.202113 0.693473
vt 0.101575 0.678560
vt 0.101575 0.496769
vt 0.202113 0.458030
vt 0.822229 0.874565
vt 0.728493 0.871583
vt 0.728493 0.709084
vt 0.822229 0.664109
vt 0.822229 0.663417
vt 0.728493 0.612478
vt 0.728493 0.449979
vt 0.822229 0.452961
vt 0.565245 0.112378
vt 0.496411 0.044176
vt 0.822921 0.667447
vt 0.905263 0.664287
vt 0.905263 0.823923
vt 0.822921 0.877903
vt 0.188876 0.904620
vt 0.106533 0.856960
vt 0.106533 0.697324
vt 0.188876 0.694164
vt 0.293712 0.693473
vt 0.202804 0.652421
vt 0.202804 0.473832
vt 0.293712 0.458030
vt 0.633373 0.617227
vt 0.550411 0.617227
vt 0.550411 0.490365
vt 0.633373 0.449979
vt 0.822921 0.449979
vt 0.905263 0.503959
vt 0.905263 0.663595
vt 0.822921 0.660435
vt 0.999654 0.166060
vt 0.902643 0.142864
vt 0.902643 0.017166
vt 0.999654 0.000346
vt 0.385310 0.693473
vt 0.294403 0.677670
vt 0.294403 0.499081
vt 0.385311 0.458030
vt 0.633373 0.784476
vt 0.550411 0.744089
vt 0.211369 0.694164
vt 0.293712 0.697325
vt 0.293712 0.856961
vt 0.211369 0.904620
vt 0.455498 0.785168
vt 0.552509 0.801987
vt 0.552509 0.927685
vt 0.455497 0.950882
vt 0.182130 0.092079
vt 0.091238 0.000346
vt 0.273022 0.002021
vt 0.363914 0.275547
vt 0.273022 0.183813
vt 0.363914 0.093755
vt 0.454806 0.185489
vt 0.273022 0.365605
vt 0.182130 0.273871
vt 0.091238 0.182138
vt 0.000346 0.090404
vt 0.363914 0.457338
vt 0.454806 0.367280
vt 0.202953 0.435030
vt 0.021169 0.251563
vt 0.112061 0.343297
vt 0.041993 0.412722

# vertex normals
vn -0.000000 0.000000 -1.000000
vn -0.691351 -0.000000 0.722519
vn 0.472303 0.618340 0.628160
vn -0.000000 -0.774074 0.633095
vn 0.510598 -0.515326 0.688280
vn 0.691351 -0.000000 0.722519
vn 0.472303 0.618340 0.628160
vn -0.510598 -0.515326 0.688280
vn -0.472303 0.618340 0.628160
vn -0.472303 0.618340 0.628160
vn -0.396088 0.518559 -0.757767
vn -0.396088 0.518559 -0.757767
vn -0.416004 -0.419856 -0.806636
vn -0.000000 -0.647650 -0.761938
vn 0.396088 0.518559 -0.757767
vn 0.553857 0.000000 -0.832612
vn 0.416004 -0.419856 -0.806636
vn -0.000000 -0.647649 -0.761938
vn 0.396088 0.518559 -0.757767
vn -0.553857 0.000000 -0.832612
vn 0.000000 -0.000000 1.000000

# Mesh
g Plane
usemtl DefaultMaterial
f 1/1/1 2/2/1 3/3/1
f 2/2/1 1/1/1 4/4/1
f 4/4/1 5/5/1 2/2/1
f 9/9/1 6/6/1 7/7/1
f 7/7/1 8/8/1 9/9/1
f 11/11/1 2/2/1 5/5/1
f 5/5/1 10/10/1 11/11/1
f 15/15/2 12/12/2 13/13/2
f 13/13/2 14/14/2 15/15/2
f 19/19/3 16/16/3 17/17/3
f 17/17/3 18/18/3 19/19/3
f 23/23/4 20/20/4 21/21/4
f 21/21/4 22/22/4 23/23/4
f 10/10/1 5/5/1 24/24/1
f 24/24/1 25/25/1 10/10/1
f 29/29/5 26/26/5 27/27/5
f 27/27/5 28/28/5 29/29/5
f 26/33/6 30/30/6 31/31/6
f 31/31/6 27/32/6 26/33/6
f 9/9/1 32/34/1 6/6/1
f 7/7/1 33/35/1 8/8/1
f 30/39/7 19/36/7 18/37/7
f 18/37/7 31/38/7 30/39/7
f 20/20/4 29/40/4 28/41/4
f 28/41/4 21/21/4 20/20/4
f 12/45/8 23/42/8 22/43/8
f 22/43/8 13/44/8 12/45/8
f 16/49/9 34/46/9 35/47/9
f 35/47/9 17/48/9 16/49/9
f 34/53/10 15/50/10 14/51/10
f 14/51/10 35/52/10 34/53/10
f 6/6/1 11/11/1 10/10/1
f 10/10/1 7/7/1 6/6/1
f 7/7/1 10/10/1 25/25/1
f 25/25/1 33/35/1 7/7/1
f 24/24/1 5/5/1 4/4/1
f 3/3/1 2/2/1 11/11/1
f 11/11/1 36/54/1 3/3/1
f 36/54/1 37/55/1 3/3/1
f 6/6/1 32/34/1 36/54/1
f 36/54/1 11/11/1 6/6/1
f 36/54/1 32/34/1 37/55/1
f 15/59/11 34/56/11 32/57/11
f 32/57/11 9/58/11 15/59/11
f 34/63/12 16/60/12 37/61/12
f 37/61/12 32/62/12 34/63/12
f 23/67/13 12/64/13 8/65/13
f 8/65/13 33/66/13 23/67/13
f 29/71/14 20/68/14 25/69/14
f 25/69/14 24/70/14 29/71/14
f 19/75/15 30/72/15 1/73/15
f 1/73/15 3/74/15 19/75/15
f 30/79/16 26/76/16 4/77/16
f 4/77/16 1/78/16 30/79/16
f 26/83/17 29/80/17 24/81/17
f 24/81/17 4/82/17 26/83/17
f 20/68/14 23/84/18 33/85/18
f 33/85/18 25/69/14 20/68/14
f 16/89/19 19/86/19 3/87/19
f 3/87/19 37/88/19 16/89/19
f 12/93/20 15/90/20 9/91/20
f 9/91/20 8/92/20 12/93/20
f 38/94/21 13/95/21 22/96/21
f 28/100/21 39/97/21 40/98/21
f 40/98/21 21/99/21 28/100/21
f 39/97/21 41/101/21 42/102/21
f 42/102/21 40/98/21 39/97/21
f 38/94/21 43/103/21 14/104/21
f 14/104/21 13/95/21 38/94/21
f 27/106/21 31/105/21 41/101/21
f 41/101/21 39/97/21 27/106/21
f 31/105/21 18/107/21 41/101/21
f 14/104/21 43/103/21 35/108/21
f 40/98/21 42/102/21 43/103/21
f 43/103/21 38/94/21 40/98/21
f 21/99/21 40/98/21 38/94/21
f 38/94/21 22/96/21 21/99/21
f 28/100/21 27/106/21 39/97/21
f 42/102/21 41/101/21 18/107/21
f 18/107/21 44/109/21 42/102/21
f 44/109/21 18/107/21 17/110/21
f 44/109/21 35/108/21 43/103/21
f 43/103/21 42/102/21 44/109/21
f 44/109/21 17/110/21 35/108/21
